<?xml version="1.0" encoding="UTF-8" standalone="no"?>
<!-- Created with Inkscape (http://www.inkscape.org/) -->
<svg
   xmlns:dc="http://purl.org/dc/elements/1.1/"
   xmlns:cc="http://web.resource.org/cc/"
   xmlns:rdf="http://www.w3.org/1999/02/22-rdf-syntax-ns#"
   xmlns:svg="http://www.w3.org/2000/svg"
   xmlns="http://www.w3.org/2000/svg"
   xmlns:sodipodi="http://sodipodi.sourceforge.net/DTD/sodipodi-0.dtd"
   xmlns:inkscape="http://www.inkscape.org/namespaces/inkscape"
   width="140"
   height="60"
   id="svg2"
   sodipodi:version="0.32"
   inkscape:version="0.45.1"
   version="1.0"
   sodipodi:docbase="C:\Documents and Settings\Travis\Desktop"
   sodipodi:docname="Lost-transparent.svg"
   inkscape:output_extension="org.inkscape.output.svg.inkscape">
  <defs
     id="defs4">
    <filter
       inkscape:collect="always"
       x="-0.036886299"
       width="1.0737726"
       y="-0.10300463"
       height="1.2060093"
       id="filter3172">
      <feGaussianBlur
         inkscape:collect="always"
         stdDeviation="1.9642023"
         id="feGaussianBlur3174" />
    </filter>
  </defs>
  <sodipodi:namedview
     id="base"
     pagecolor="#ffffff"
     bordercolor="#666666"
     borderopacity="1.0"
     gridtolerance="10000"
     guidetolerance="10"
     objecttolerance="10"
     inkscape:pageopacity="0.0"
     inkscape:pageshadow="2"
     inkscape:zoom="1.7236022"
     inkscape:cx="126.92598"
     inkscape:cy="28.170854"
     inkscape:document-units="px"
     inkscape:current-layer="layer1"
     width="140px"
     height="60px"
     inkscape:window-width="744"
     inkscape:window-height="573"
     inkscape:window-x="323"
     inkscape:window-y="39" />
  <metadata
     id="metadata7">
    <rdf:RDF>
      <cc:Work
         rdf:about="">
        <dc:format>image/svg+xml</dc:format>
        <dc:type
           rdf:resource="http://purl.org/dc/dcmitype/StillImage" />
		   <!-- Gjemsel -->
      </cc:Work>
    </rdf:RDF>
  </metadata>
  <g
     inkscape:label="Layer 1"
     inkscape:groupmode="layer"
     id="layer1">
    <path
       transform="scale(1.0383634,0.963054)"
       style="font-size:61.74458694px;font-style:normal;font-weight:normal;fill:#000000;fill-opacity:1;stroke:none;stroke-width:1px;stroke-linecap:butt;stroke-linejoin:miter;stroke-opacity:1;font-family:Bitstream Vera Sans;opacity:1;filter:url(#filter3172)"
       d="M 4.2145515,53.174744 L 4.2145515,8.9767141 L 9.0081986,8.9767141 L 9.0081986,47.959014 L 26.856243,47.959014 L 26.856243,53.174744 L 4.2145515,53.174744 z M 31.378552,31.648555 C 31.378549,24.111403 33.036728,18.317829 36.353091,14.267815 C 39.66944,10.21788 43.799811,8.1928923 48.744217,8.1928473 C 51.939959,8.1928923 54.854332,9.0973531 57.487347,10.906232 C 60.120304,12.715196 62.205589,15.343158 63.743207,18.790124 C 65.280756,22.237159 66.049547,26.342406 66.049585,31.105878 C 66.049547,37.658216 64.562212,42.994535 61.587574,47.11485 C 58.311383,51.657259 54.020219,53.928461 48.714068,53.928462 C 43.36768,53.928461 39.066466,51.596962 35.810414,46.933958 C 32.855835,42.713147 31.378549,37.618018 31.378552,31.648555 L 31.378552,31.648555 z M 36.322943,31.739001 C 36.322935,37.185886 37.523858,41.411728 39.925715,44.416539 C 42.32755,47.421368 45.246949,48.923778 48.68392,48.923774 C 52.201247,48.923778 55.150795,47.406294 57.53257,44.371316 C 59.914288,41.336356 61.105162,36.87435 61.105194,30.985283 C 61.105162,27.186569 60.492138,23.789817 59.266122,20.795014 C 58.321432,18.503746 56.899419,16.6697 55.000077,15.292872 C 53.100683,13.916119 51.025448,13.227724 48.774366,13.227684 C 45.156503,13.227724 42.176807,14.735159 39.835269,17.749993 C 37.49371,20.764898 36.322935,25.427896 36.322943,31.739001 L 36.322943,31.739001 z M 70.541748,38.974695 L 75.064056,38.492315 C 75.305239,40.924324 75.85294,42.818667 76.707162,44.17535 C 77.561366,45.53205 78.782388,46.622428 80.370232,47.446486 C 81.958051,48.270556 83.746873,48.682588 85.736705,48.682584 C 88.590763,48.682588 90.806692,47.984144 92.384498,46.587247 C 93.962256,45.190365 94.751147,43.376418 94.751173,41.145403 C 94.751147,39.838971 94.464734,38.698346 93.891934,37.723523 C 93.319084,36.74873 92.454821,35.94979 91.299144,35.326699 C 90.143421,34.703644 87.646104,33.829332 83.807186,32.70376 C 80.390319,31.698824 77.958324,30.683818 76.511195,29.658739 C 75.064049,28.633707 73.938498,27.332288 73.134538,25.754479 C 72.330568,24.176725 71.928585,22.392927 71.928589,20.403081 C 71.928585,16.825468 73.084285,13.901045 75.395692,11.629802 C 77.707085,9.3586418 80.82245,8.223041 84.741797,8.222996 C 87.435063,8.223041 89.791686,8.7556679 91.811672,9.8208784 C 93.831611,10.886176 95.399343,12.413709 96.514873,14.403484 C 97.630347,16.393337 98.228296,18.734886 98.308722,21.428137 L 93.695968,21.850219 C 93.454753,18.976075 92.595515,16.845567 91.118252,15.45869 C 89.640943,14.071888 87.565708,13.378468 84.89254,13.378428 C 82.179141,13.378468 80.108931,13.986466 78.681903,15.202426 C 77.254854,16.418461 76.541335,17.991218 76.541344,19.920701 C 76.541335,21.709557 77.063913,23.096397 78.109077,24.081225 C 79.154222,25.066111 81.50582,26.061018 85.163879,27.065949 C 88.741507,28.050832 91.253898,28.905045 92.70106,29.62859 C 94.91194,30.754165 96.580167,32.236476 97.705748,34.075527 C 98.83127,35.914616 99.394045,38.110446 99.394077,40.663023 C 99.394045,43.195526 98.801121,45.501901 97.615302,47.582155 C 96.429424,49.662421 94.816469,51.245227 92.776432,52.330579 C 90.736345,53.415933 88.279227,53.95861 85.405069,53.95861 C 80.922946,53.95861 77.350325,52.611968 74.687197,49.918681 C 72.024056,47.225401 70.642241,43.577409 70.541748,38.974695 L 70.541748,38.974695 z M 115.22216,53.174744 L 115.22216,14.192443 L 103.28326,14.192443 L 103.28326,8.9767141 L 132.015,8.9767141 L 132.015,14.192443 L 120.0158,14.192443 L 120.0158,53.174744 L 115.22216,53.174744 z "
       id="text2160" />
  </g>
</svg>
